<?xml version="1.0" encoding="UTF-8"?>
<svg id="Layer_2" data-name="Layer 2" xmlns="http://www.w3.org/2000/svg" viewBox="0 0 50 11.59">
  <defs>
    <style>
      .cls-1 {
        opacity: .75;
      }

      .cls-2 {
        fill: #bf0000;
      }
    </style>
  </defs>
  <g id="Layer_1-2" data-name="Layer 1">
    <g class="cls-1">
      <path class="cls-2" d="m22.52,10.27c0,.73-.59,1.32-1.32,1.32h-5.59c-.73,0-1.32-.59-1.32-1.32V1.32C14.29.59,14.88,0,15.61,0s1.32.59,1.32,1.32v7.64h4.27c.73,0,1.32.59,1.32,1.32Z"/>
      <path class="cls-2" d="m26.37,0c-.73,0-1.32.59-1.32,1.32v8.95c0,.73.59,1.32,1.32,1.32s1.32-.59,1.32-1.32V1.32C27.69.59,27.1,0,26.37,0Z"/>
      <path class="cls-2" d="m38.84.09c-.68-.26-1.44.07-1.71.75l-2.26,5.84-2.27-5.82c-.3-.66-1.08-.95-1.74-.65-.61.28-.91.97-.7,1.61l3.51,8.96h0c.04.11.1.21.18.3l.05.06c.07.08.15.16.24.22.08.05.16.1.25.13.14.05.28.07.43.08.15,0,.29-.03.43-.08.09-.04.17-.08.25-.13.09-.06.17-.14.24-.22l.05-.06c.07-.09.13-.19.18-.3l3.51-8.96c.29-.65.02-1.41-.61-1.72Z"/>
      <path class="cls-2" d="m48.68,8.96h-4.01v-1.84h2.26c.73,0,1.32-.59,1.32-1.32s-.59-1.32-1.32-1.32h-2.26v-1.84h4.01c.73,0,1.32-.59,1.32-1.32S49.41,0,48.68,0h-5.27c-.73,0-1.32.59-1.32,1.32v8.95c0,.73.59,1.32,1.32,1.32h5.27c.73,0,1.32-.59,1.32-1.32s-.59-1.32-1.32-1.32Z"/>
      <path class="cls-2" d="m4.39,1.52C1.96,1.52,0,3.48,0,5.91s1.96,4.39,4.39,4.39,4.39-1.96,4.39-4.39S6.81,1.52,4.39,1.52Zm0,6.13c-.96,0-1.74-.78-1.74-1.74s.78-1.74,1.74-1.74,1.74.78,1.74,1.74-.78,1.74-1.74,1.74Z"/>
    </g>
  </g>
</svg>